<svg id="Layer_1" data-name="Layer 1" xmlns="http://www.w3.org/2000/svg" viewBox="0 0 57.65 34.31"><defs><style>.cls-1{fill:none;stroke:#231f20;stroke-miterlimit:10;stroke-width:0.1px;}</style></defs><title>logo</title><path class="cls-1" d="M24.16,31c0,6-3.09,8.92-7,9.06H8.52c-7.68,0-7.3,5.3-7.3,5.3H17.17c11.22,0,12.76-10.13,12.76-19.63H7.11c0-6,3.09-8.92,7-9.06h8.6c7.68,0,7.3-5.3,7.3-5.3H14.1C2.88,11.38,1.34,21.52,1.34,31H24.16Z" transform="translate(-1.16 -11.33)"/><path class="cls-1" d="M35.95,31H58.77c0-9.5-1.54-19.63-12.76-19.63H30.06s-0.38,5.3,7.3,5.3H46c4,0.14,7,3.07,7,9.06H30.18V45.59c2.69,0,5.82,0,5.82-7.17Z" transform="translate(-1.16 -11.33)"/></svg>